<svg
    width="48"
    height="48"
    viewBox="0 0 48 48"
    fill="none"
    xmlns="http://www.w3.org/2000/svg"
>
    <rect
        width="48"
        height="48"
        rx="24"
        fill="url(#paint0_radial_973_2817)"
    ></rect>
    <path
        d="M19.2632 12C15.263 12 12 15.263 12 19.2632V28.7368C12 32.7365 15.2629 36 19.2632 36H28.7368C32.7366 36 36 32.7366 36 28.7368V19.2632C36 15.2629 32.7365 12 28.7368 12H19.2632ZM19.2632 13.8947H28.7368C31.7124 13.8947 34.1053 16.287 34.1053 19.2632V28.7368C34.1053 31.7122 31.7122 34.1053 28.7368 34.1053H19.2632C16.287 34.1053 13.8947 31.7124 13.8947 28.7368V19.2632C13.8947 16.2869 16.2869 13.8947 19.2632 13.8947ZM30.3158 16.4211C29.6179 16.4211 29.0526 16.9863 29.0526 17.6842C29.0526 18.3821 29.6179 18.9474 30.3158 18.9474C31.0137 18.9474 31.5789 18.3821 31.5789 17.6842C31.5789 16.9863 31.0137 16.4211 30.3158 16.4211ZM24 17.6842C20.5233 17.6842 17.6842 20.5233 17.6842 24C17.6842 27.4767 20.5233 30.3158 24 30.3158C27.4767 30.3158 30.3158 27.4767 30.3158 24C30.3158 20.5233 27.4767 17.6842 24 17.6842ZM24 19.5789C26.4525 19.5789 28.4211 21.5475 28.4211 24C28.4211 26.4525 26.4525 28.4211 24 28.4211C21.5475 28.4211 19.5789 26.4525 19.5789 24C19.5789 21.5475 21.5475 19.5789 24 19.5789Z"
        fill="white"></path>
    <defs>
        <radialGradient
            id="paint0_radial_973_2817"
            cx="0"
            cy="0"
            r="1"
            gradientUnits="userSpaceOnUse"
            gradientTransform="translate(17.8439 48.0346) scale(59.8337 59.8337)"
        >
            <stop stop-color="#FFDD55"></stop>
            <stop
                offset="0.328"
                stop-color="#FF543F"></stop>
            <stop
                offset="0.348"
                stop-color="#FC5245"></stop>
            <stop
                offset="0.504"
                stop-color="#E64771"></stop>
            <stop
                offset="0.643"
                stop-color="#D53E91"></stop>
            <stop
                offset="0.761"
                stop-color="#CC39A4"></stop>
            <stop
                offset="0.841"
                stop-color="#C837AB"></stop>
        </radialGradient>
    </defs>
</svg>