<svg
    width="48"
    height="48"
    viewBox="0 0 48 48"
    fill="none"
    xmlns="http://www.w3.org/2000/svg"
>
    <rect
        width="48"
        height="48"
        rx="24"
        fill="#F10000"></rect>
    <path
        d="M35.469 18.429L35.499 18.625C35.209 17.596 34.426 16.802 33.431 16.513L33.41 16.508C31.5391 16 24.0101 16 24.0101 16C24.0101 16 16.5002 15.99 14.6103 16.508C13.5963 16.802 12.8123 17.596 12.5273 18.604L12.5223 18.625C11.8233 22.2759 11.8183 26.6629 12.5533 30.5718L12.5223 30.3738C12.8123 31.4028 13.5953 32.1968 14.5903 32.4858L14.6113 32.4908C16.4802 32.9998 24.0111 32.9998 24.0111 32.9998C24.0111 32.9998 31.5201 32.9998 33.411 32.4908C34.426 32.1968 35.21 31.4028 35.495 30.3948L35.5 30.3738C35.818 28.6759 36 26.7219 36 24.7259C36 24.6529 36 24.5789 35.999 24.5049C36 24.4369 36 24.3559 36 24.2749C36 22.2779 35.818 20.324 35.469 18.429ZM21.6082 28.1509V20.858L27.8741 24.5099L21.6082 28.1509Z"
        fill="white"></path>
</svg>